<svg width="54" height="44" viewBox="0 0 54 44" fill="none" xmlns="http://www.w3.org/2000/svg">
<path d="M16.9 43.84C11.66 43.84 7.54 41.86 4.54 37.9C1.58 33.9 0.1 28.6 0.1 22C0.1 15.4 1.58 10.12 4.54 6.16C7.54 2.16 11.66 0.159997 16.9 0.159997C22.18 0.159997 26.3 2.16 29.26 6.16C32.22 10.12 33.7 15.4 33.7 22C33.7 28.6 32.22 33.9 29.26 37.9C26.3 41.86 22.18 43.84 16.9 43.84ZM10.54 32.26C11.98 34.58 14.1 35.74 16.9 35.74C19.7 35.74 21.82 34.56 23.26 32.2C24.74 29.84 25.48 26.44 25.48 22C25.48 17.52 24.74 14.1 23.26 11.74C21.82 9.38 19.7 8.2 16.9 8.2C14.1 8.2 11.98 9.38 10.54 11.74C9.1 14.1 8.38 17.52 8.38 22C8.38 26.48 9.1 29.9 10.54 32.26ZM46.3211 0.999997H53.5211V43H45.2411V9.76L37.3211 11.98L35.2811 4.9L46.3211 0.999997Z" fill="#FCD54C"/>
</svg>
