<svg width="65" height="44" viewBox="0 0 65 44" fill="none" xmlns="http://www.w3.org/2000/svg">
<path d="M16.9 43.84C11.66 43.84 7.54 41.86 4.54 37.9C1.58 33.9 0.1 28.6 0.1 22C0.1 15.4 1.58 10.12 4.54 6.16C7.54 2.16 11.66 0.159997 16.9 0.159997C22.18 0.159997 26.3 2.16 29.26 6.16C32.22 10.12 33.7 15.4 33.7 22C33.7 28.6 32.22 33.9 29.26 37.9C26.3 41.86 22.18 43.84 16.9 43.84ZM10.54 32.26C11.98 34.58 14.1 35.74 16.9 35.74C19.7 35.74 21.82 34.56 23.26 32.2C24.74 29.84 25.48 26.44 25.48 22C25.48 17.52 24.74 14.1 23.26 11.74C21.82 9.38 19.7 8.2 16.9 8.2C14.1 8.2 11.98 9.38 10.54 11.74C9.1 14.1 8.38 17.52 8.38 22C8.38 26.48 9.1 29.9 10.54 32.26ZM36.3583 43V36.82L50.6983 22.06C53.8983 18.7 55.4983 15.9 55.4983 13.66C55.4983 12.02 54.9783 10.7 53.9383 9.7C52.9383 8.7 51.6383 8.2 50.0383 8.2C46.8783 8.2 44.5383 9.84 43.0183 13.12L36.0583 9.04C37.3783 6.16 39.2783 3.96 41.7583 2.44C44.2383 0.919997 46.9583 0.159997 49.9183 0.159997C53.7183 0.159997 56.9783 1.36 59.6983 3.76C62.4183 6.12 63.7783 9.32 63.7783 13.36C63.7783 17.72 61.4783 22.2 56.8783 26.8L48.6583 35.02H64.4383V43H36.3583Z" fill="gray"/>
</svg>
