<svg width="65" height="44" viewBox="0 0 65 44" fill="none" xmlns="http://www.w3.org/2000/svg">
<path d="M16.9 43.84C11.66 43.84 7.54 41.86 4.54 37.9C1.58 33.9 0.1 28.6 0.1 22C0.1 15.4 1.58 10.12 4.54 6.16C7.54 2.16 11.66 0.159997 16.9 0.159997C22.18 0.159997 26.3 2.16 29.26 6.16C32.22 10.12 33.7 15.4 33.7 22C33.7 28.6 32.22 33.9 29.26 37.9C26.3 41.86 22.18 43.84 16.9 43.84ZM10.54 32.26C11.98 34.58 14.1 35.74 16.9 35.74C19.7 35.74 21.82 34.56 23.26 32.2C24.74 29.84 25.48 26.44 25.48 22C25.48 17.52 24.74 14.1 23.26 11.74C21.82 9.38 19.7 8.2 16.9 8.2C14.1 8.2 11.98 9.38 10.54 11.74C9.1 14.1 8.38 17.52 8.38 22C8.38 26.48 9.1 29.9 10.54 32.26ZM55.2738 18.04C58.1138 18.88 60.4138 20.36 62.1738 22.48C63.9738 24.56 64.8738 27.08 64.8738 30.04C64.8738 34.36 63.4138 37.74 60.4938 40.18C57.6138 42.62 54.0738 43.84 49.8738 43.84C46.5938 43.84 43.6538 43.1 41.0538 41.62C38.4938 40.1 36.6338 37.88 35.4738 34.96L42.5538 30.88C43.5938 34.12 46.0338 35.74 49.8738 35.74C51.9938 35.74 53.6338 35.24 54.7938 34.24C55.9938 33.2 56.5938 31.8 56.5938 30.04C56.5938 28.32 55.9938 26.94 54.7938 25.9C53.6338 24.86 51.9938 24.34 49.8738 24.34H48.0738L44.8938 19.54L53.1738 8.74H36.7338V0.999997H63.1338V7.84L55.2738 18.04Z" fill="gray"/>
</svg>
